<?xml version="1.0" standalone="no"?><svg xmlns="http://www.w3.org/2000/svg" viewBox="0 0 1440 320"><path fill="#0099ff" fill-opacity="1" d="M0,256L17.1,234.7C34.3,213,69,171,103,176C137.1,181,171,235,206,224C240,213,274,139,309,96C342.9,53,377,43,411,58.7C445.7,75,480,117,514,144C548.6,171,583,181,617,186.7C651.4,192,686,192,720,176C754.3,160,789,128,823,138.7C857.1,149,891,203,926,202.7C960,203,994,149,1029,106.7C1062.9,64,1097,32,1131,53.3C1165.7,75,1200,149,1234,202.7C1268.6,256,1303,288,1337,266.7C1371.4,245,1406,171,1423,133.3L1440,96L1440,320L1422.9,320C1405.7,320,1371,320,1337,320C1302.9,320,1269,320,1234,320C1200,320,1166,320,1131,320C1097.1,320,1063,320,1029,320C994.3,320,960,320,926,320C891.4,320,857,320,823,320C788.6,320,754,320,720,320C685.7,320,651,320,617,320C582.9,320,549,320,514,320C480,320,446,320,411,320C377.1,320,343,320,309,320C274.3,320,240,320,206,320C171.4,320,137,320,103,320C68.6,320,34,320,17,320L0,320Z"></path></svg>